<svg xmlns="http://www.w3.org/2000/svg" xmlns:xlink="http://www.w3.org/1999/xlink" fill="none" version="1.1" width="500" height="500" viewBox="0 0 500 500"><defs><clipPath id="master_svg0_135_2045"><rect x="0" y="0" width="500" height="500" rx="250"/></clipPath></defs><g clip-path="url(#master_svg0_135_2045)"><rect x="0" y="0" width="500" height="500" rx="250" fill="#FF57E3" fill-opacity="1"/><g><path d="M5.191828664003371,-2.8552841546035768L31.376587664003374,58.24248744539642C31.484394664003375,58.494036445396425,31.484394664003375,58.77878044539642,31.376587664003374,59.030329445396426L5.191828664003371,120.12806844539642C4.845495664003373,120.93618844539643,3.699869664003373,120.93618844539643,3.3535376640033725,120.12807844539643L-22.83122191599663,59.03030644539643C-22.93902911999663,58.77875744539642,-22.939029089996627,58.494013445396426,-22.83122242999663,58.24246444539642L3.3535376640033725,-2.8552827846035767C3.699869664003373,-3.6633920046035766,4.845495664003373,-3.663391824603577,5.191828664003371,-2.8552840946035767" fill-rule="evenodd" fill="#E04BC7" fill-opacity="1"/></g><g><path d="M223.3735906142578,-2.8552841546035768L249.55834961425782,58.24248744539642C249.66615661425783,58.494036445396425,249.66615661425783,58.77878044539642,249.55834961425782,59.030329445396426L223.3735906142578,120.12806844539642C223.02725761425782,120.93618844539643,221.8816316142578,120.93618844539643,221.5352996142578,120.12807844539643L195.35054003425782,59.03030644539643C195.2427328302578,58.77875744539642,195.2427328602578,58.494013445396426,195.35053952025783,58.24246444539642L221.5352996142578,-2.8552827846035767C221.8816316142578,-3.6633920046035766,223.02725761425782,-3.663391824603577,223.3735906142578,-2.8552840946035767" fill-rule="evenodd" fill="#E04BC7" fill-opacity="1"/></g><g><path d="M59.73723807519531,-2.8552841546035768L85.92199707519532,58.24248744539642C86.02980407519532,58.494036445396425,86.02980407519532,58.77878044539642,85.92199707519532,59.030329445396426L59.73723807519531,120.12806844539642C59.39090507519531,120.93618844539643,58.24527907519531,120.93618844539643,57.89894707519531,120.12807844539643L31.71418749519531,59.03030644539643C31.60638029119531,58.77875744539642,31.606380321195314,58.494013445396426,31.71418698119531,58.24246444539642L57.89894707519531,-2.8552827846035767C58.24527907519531,-3.6633920046035766,59.39090507519531,-3.663391824603577,59.73723807519531,-2.8552840946035767" fill-rule="evenodd" fill="#E04BC7" fill-opacity="1"/></g><g><path d="M277.91901602929687,-2.8552841546035768L304.10377502929686,58.24248744539642C304.2115820292969,58.494036445396425,304.2115820292969,58.77878044539642,304.10377502929686,59.030329445396426L277.91901602929687,120.12806844539642C277.57268302929685,120.93618844539643,276.42705702929686,120.93618844539643,276.0807250292969,120.12807844539643L249.89596544929688,59.03030644539643C249.78815824529687,58.77875744539642,249.78815827529687,58.494013445396426,249.8959649352969,58.24246444539642L276.0807250292969,-2.8552827846035767C276.42705702929686,-3.6633920046035766,277.57268302929685,-3.663391824603577,277.91901602929687,-2.8552840946035767" fill-rule="evenodd" fill="#E04BC7" fill-opacity="1"/></g><g><path d="M114.28264823144531,-2.8552841546035768L140.46740723144532,58.24248744539642C140.57521423144533,58.494036445396425,140.57521423144533,58.77878044539642,140.46740723144532,59.030329445396426L114.28264823144531,120.12806844539642C113.93631523144532,120.93618844539643,112.79068923144531,120.93618844539643,112.44435723144531,120.12807844539643L86.25959765144532,59.03030644539643C86.15179044744531,58.77875744539642,86.15179047744532,58.494013445396426,86.25959713744531,58.24246444539642L112.44435723144531,-2.8552827846035767C112.79068923144531,-3.6633920046035766,113.93631523144532,-3.663391824603577,114.28264823144531,-2.8552840946035767" fill-rule="evenodd" fill="#E04BC7" fill-opacity="1"/></g><g><path d="M332.46454825585937,-2.8552841546035768L358.64930725585936,58.24248744539642C358.7571142558594,58.494036445396425,358.7571142558594,58.77878044539642,358.64930725585936,59.030329445396426L332.46454825585937,120.12806844539642C332.11821525585935,120.93618844539643,330.97258925585936,120.93618844539643,330.6262572558594,120.12807844539643L304.44149767585935,59.03030644539643C304.33369047185937,58.77875744539642,304.3336905018594,58.494013445396426,304.4414971618594,58.24246444539642L330.6262572558594,-2.8552827846035767C330.97258925585936,-3.6633920046035766,332.11821525585935,-3.663391824603577,332.46454825585937,-2.8552840946035767" fill-rule="evenodd" fill="#E04BC7" fill-opacity="1"/></g><g><path d="M441.55549063867187,-2.8552841546035768L467.74024963867186,58.24248744539642C467.8480566386719,58.494036445396425,467.8480566386719,58.77878044539642,467.74024963867186,59.030329445396426L441.55549063867187,120.12806844539642C441.20915763867185,120.93618844539643,440.06353163867186,120.93618844539643,439.7171996386719,120.12807844539643L413.53244005867185,59.03030644539643C413.42463285467187,58.77875744539642,413.4246328846719,58.494013445396426,413.5324395446719,58.24246444539642L439.7171996386719,-2.8552827846035767C440.06353163867186,-3.6633920046035766,441.20915763867185,-3.663391824603577,441.55549063867187,-2.8552840946035767" fill-rule="evenodd" fill="#E04BC7" fill-opacity="1"/></g><g><path d="M168.8281804580078,-2.8552841546035768L195.01293945800782,58.24248744539642C195.12074645800783,58.494036445396425,195.12074645800783,58.77878044539642,195.01293945800782,59.030329445396426L168.8281804580078,120.12806844539642C168.48184745800782,120.93618844539643,167.3362214580078,120.93618844539643,166.9898894580078,120.12807844539643L140.80512987800782,59.03030644539643C140.6973226740078,58.77875744539642,140.6973227040078,58.494013445396426,140.80512936400783,58.24246444539642L166.9898894580078,-2.8552827846035767C167.3362214580078,-3.6633920046035766,168.48184745800782,-3.663391824603577,168.8281804580078,-2.8552840946035767" fill-rule="evenodd" fill="#E04BC7" fill-opacity="1"/></g><g><path d="M387.00995841210937,-2.8552841546035768L413.19471741210936,58.24248744539642C413.3025244121094,58.494036445396425,413.3025244121094,58.77878044539642,413.19471741210936,59.030329445396426L387.00995841210937,120.12806844539642C386.66362541210935,120.93618844539643,385.51799941210936,120.93618844539643,385.1716674121094,120.12807844539643L358.98690783210935,59.03030644539643C358.87910062810937,58.77875744539642,358.8791006581094,58.494013445396426,358.9869073181094,58.24246444539642L385.1716674121094,-2.8552827846035767C385.51799941210936,-3.6633920046035766,386.66362541210935,-3.663391824603577,387.00995841210937,-2.8552840946035767" fill-rule="evenodd" fill="#E04BC7" fill-opacity="1"/></g><g><path d="M496.10090079492187,-2.8552841546035768L522.2856597949219,58.24248744539642C522.3934667949219,58.494036445396425,522.3934667949219,58.77878044539642,522.2856597949219,59.030329445396426L496.10090079492187,120.12806844539642C495.75456779492185,120.93618844539643,494.60894179492186,120.93618844539643,494.2626097949219,120.12807844539643L468.07785021492185,59.03030644539643C467.97004301092187,58.77875744539642,467.9700430409219,58.494013445396426,468.0778497009219,58.24246444539642L494.2626097949219,-2.8552827846035767C494.60894179492186,-3.6633920046035766,495.75456779492185,-3.663391824603577,496.10090079492187,-2.8552840946035767" fill-rule="evenodd" fill="#E04BC7" fill-opacity="1"/></g><g><path d="M5.191828664003371,124.41742247324218L31.376587664003374,185.51519407324218C31.484394664003375,185.7667430732422,31.484394664003375,186.05148707324219,31.376587664003374,186.3030360732422L5.191828664003371,247.4007750732422C4.845495664003373,248.2088950732422,3.699869664003373,248.2088950732422,3.3535376640033725,247.4007850732422L-22.83122191599663,186.3030130732422C-22.93902911999663,186.0514640732422,-22.939029089996627,185.7667200732422,-22.83122242999663,185.5151710732422L3.3535376640033725,124.41742384324219C3.699869664003373,123.60931462324218,4.845495664003373,123.60931480324219,5.191828664003371,124.41742253324219" fill-rule="evenodd" fill="#E04BC7" fill-opacity="1"/></g><g><path d="M223.3735906142578,124.41742247324218L249.55834961425782,185.51519407324218C249.66615661425783,185.7667430732422,249.66615661425783,186.05148707324219,249.55834961425782,186.3030360732422L223.3735906142578,247.4007750732422C223.02725761425782,248.2088950732422,221.8816316142578,248.2088950732422,221.5352996142578,247.4007850732422L195.35054003425782,186.3030130732422C195.2427328302578,186.0514640732422,195.2427328602578,185.7667200732422,195.35053952025783,185.5151710732422L221.5352996142578,124.41742384324219C221.8816316142578,123.60931462324218,223.02725761425782,123.60931480324219,223.3735906142578,124.41742253324219" fill-rule="evenodd" fill="#E04BC7" fill-opacity="1"/></g><g><path d="M59.73723807519531,124.41742247324218L85.92199707519532,185.51519407324218C86.02980407519532,185.7667430732422,86.02980407519532,186.05148707324219,85.92199707519532,186.3030360732422L59.73723807519531,247.4007750732422C59.39090507519531,248.2088950732422,58.24527907519531,248.2088950732422,57.89894707519531,247.4007850732422L31.71418749519531,186.3030130732422C31.60638029119531,186.0514640732422,31.606380321195314,185.7667200732422,31.71418698119531,185.5151710732422L57.89894707519531,124.41742384324219C58.24527907519531,123.60931462324218,59.39090507519531,123.60931480324219,59.73723807519531,124.41742253324219" fill-rule="evenodd" fill="#E04BC7" fill-opacity="1"/></g><g><path d="M277.91901602929687,124.41742247324218L304.10377502929686,185.51519407324218C304.2115820292969,185.7667430732422,304.2115820292969,186.05148707324219,304.10377502929686,186.3030360732422L277.91901602929687,247.4007750732422C277.57268302929685,248.2088950732422,276.42705702929686,248.2088950732422,276.0807250292969,247.4007850732422L249.89596544929688,186.3030130732422C249.78815824529687,186.0514640732422,249.78815827529687,185.7667200732422,249.8959649352969,185.5151710732422L276.0807250292969,124.41742384324219C276.42705702929686,123.60931462324218,277.57268302929685,123.60931480324219,277.91901602929687,124.41742253324219" fill-rule="evenodd" fill="#E04BC7" fill-opacity="1"/></g><g><path d="M114.28264823144531,124.41742247324218L140.46740723144532,185.51519407324218C140.57521423144533,185.7667430732422,140.57521423144533,186.05148707324219,140.46740723144532,186.3030360732422L114.28264823144531,247.4007750732422C113.93631523144532,248.2088950732422,112.79068923144531,248.2088950732422,112.44435723144531,247.4007850732422L86.25959765144532,186.3030130732422C86.15179044744531,186.0514640732422,86.15179047744532,185.7667200732422,86.25959713744531,185.5151710732422L112.44435723144531,124.41742384324219C112.79068923144531,123.60931462324218,113.93631523144532,123.60931480324219,114.28264823144531,124.41742253324219" fill-rule="evenodd" fill="#E04BC7" fill-opacity="1"/></g><g><path d="M332.46454825585937,124.41742247324218L358.64930725585936,185.51519407324218C358.7571142558594,185.7667430732422,358.7571142558594,186.05148707324219,358.64930725585936,186.3030360732422L332.46454825585937,247.4007750732422C332.11821525585935,248.2088950732422,330.97258925585936,248.2088950732422,330.6262572558594,247.4007850732422L304.44149767585935,186.3030130732422C304.33369047185937,186.0514640732422,304.3336905018594,185.7667200732422,304.4414971618594,185.5151710732422L330.6262572558594,124.41742384324219C330.97258925585936,123.60931462324218,332.11821525585935,123.60931480324219,332.46454825585937,124.41742253324219" fill-rule="evenodd" fill="#E04BC7" fill-opacity="1"/></g><g><path d="M441.55549063867187,124.41742247324218L467.74024963867186,185.51519407324218C467.8480566386719,185.7667430732422,467.8480566386719,186.05148707324219,467.74024963867186,186.3030360732422L441.55549063867187,247.4007750732422C441.20915763867185,248.2088950732422,440.06353163867186,248.2088950732422,439.7171996386719,247.4007850732422L413.53244005867185,186.3030130732422C413.42463285467187,186.0514640732422,413.4246328846719,185.7667200732422,413.5324395446719,185.5151710732422L439.7171996386719,124.41742384324219C440.06353163867186,123.60931462324218,441.20915763867185,123.60931480324219,441.55549063867187,124.41742253324219" fill-rule="evenodd" fill="#E04BC7" fill-opacity="1"/></g><g><path d="M168.8281804580078,124.41742247324218L195.01293945800782,185.51519407324218C195.12074645800783,185.7667430732422,195.12074645800783,186.05148707324219,195.01293945800782,186.3030360732422L168.8281804580078,247.4007750732422C168.48184745800782,248.2088950732422,167.3362214580078,248.2088950732422,166.9898894580078,247.4007850732422L140.80512987800782,186.3030130732422C140.6973226740078,186.0514640732422,140.6973227040078,185.7667200732422,140.80512936400783,185.5151710732422L166.9898894580078,124.41742384324219C167.3362214580078,123.60931462324218,168.48184745800782,123.60931480324219,168.8281804580078,124.41742253324219" fill-rule="evenodd" fill="#E04BC7" fill-opacity="1"/></g><g><path d="M387.00995841210937,124.41742247324218L413.19471741210936,185.51519407324218C413.3025244121094,185.7667430732422,413.3025244121094,186.05148707324219,413.19471741210936,186.3030360732422L387.00995841210937,247.4007750732422C386.66362541210935,248.2088950732422,385.51799941210936,248.2088950732422,385.1716674121094,247.4007850732422L358.98690783210935,186.3030130732422C358.87910062810937,186.0514640732422,358.8791006581094,185.7667200732422,358.9869073181094,185.5151710732422L385.1716674121094,124.41742384324219C385.51799941210936,123.60931462324218,386.66362541210935,123.60931480324219,387.00995841210937,124.41742253324219" fill-rule="evenodd" fill="#E04BC7" fill-opacity="1"/></g><g><path d="M496.10090079492187,124.41742247324218L522.2856597949219,185.51519407324218C522.3934667949219,185.7667430732422,522.3934667949219,186.05148707324219,522.2856597949219,186.3030360732422L496.10090079492187,247.4007750732422C495.75456779492185,248.2088950732422,494.60894179492186,248.2088950732422,494.2626097949219,247.4007850732422L468.07785021492185,186.3030130732422C467.97004301092187,186.0514640732422,467.9700430409219,185.7667200732422,468.0778497009219,185.5151710732422L494.2626097949219,124.41742384324219C494.60894179492186,123.60931462324218,495.75456779492185,123.60931480324219,496.10090079492187,124.41742253324219" fill-rule="evenodd" fill="#E04BC7" fill-opacity="1"/></g><g><path d="M5.191828664003371,251.69014281015626L31.376587664003374,312.78791441015625C31.484394664003375,313.03946341015626,31.484394664003375,313.32420741015625,31.376587664003374,313.57575641015626L5.191828664003371,374.67349541015625C4.845495664003373,375.4816154101562,3.699869664003373,375.4816154101562,3.3535376640033725,374.6735054101563L-22.83122191599663,313.57573341015626C-22.93902911999663,313.32418441015625,-22.939029089996627,313.03944041015626,-22.83122242999663,312.78789141015625L3.3535376640033725,251.69014418015624C3.699869664003373,250.88203496015626,4.845495664003373,250.88203514015626,5.191828664003371,251.69014287015625" fill-rule="evenodd" fill="#E04BC7" fill-opacity="1"/></g><g><path d="M223.3735906142578,251.69014281015626L249.55834961425782,312.78791441015625C249.66615661425783,313.03946341015626,249.66615661425783,313.32420741015625,249.55834961425782,313.57575641015626L223.3735906142578,374.67349541015625C223.02725761425782,375.4816154101562,221.8816316142578,375.4816154101562,221.5352996142578,374.6735054101563L195.35054003425782,313.57573341015626C195.2427328302578,313.32418441015625,195.2427328602578,313.03944041015626,195.35053952025783,312.78789141015625L221.5352996142578,251.69014418015624C221.8816316142578,250.88203496015626,223.02725761425782,250.88203514015626,223.3735906142578,251.69014287015625" fill-rule="evenodd" fill="#E04BC7" fill-opacity="1"/></g><g><path d="M59.73723807519531,251.69014281015626L85.92199707519532,312.78791441015625C86.02980407519532,313.03946341015626,86.02980407519532,313.32420741015625,85.92199707519532,313.57575641015626L59.73723807519531,374.67349541015625C59.39090507519531,375.4816154101562,58.24527907519531,375.4816154101562,57.89894707519531,374.6735054101563L31.71418749519531,313.57573341015626C31.60638029119531,313.32418441015625,31.606380321195314,313.03944041015626,31.71418698119531,312.78789141015625L57.89894707519531,251.69014418015624C58.24527907519531,250.88203496015626,59.39090507519531,250.88203514015626,59.73723807519531,251.69014287015625" fill-rule="evenodd" fill="#E04BC7" fill-opacity="1"/></g><g><path d="M277.91901602929687,251.69014281015626L304.10377502929686,312.78791441015625C304.2115820292969,313.03946341015626,304.2115820292969,313.32420741015625,304.10377502929686,313.57575641015626L277.91901602929687,374.67349541015625C277.57268302929685,375.4816154101562,276.42705702929686,375.4816154101562,276.0807250292969,374.6735054101563L249.89596544929688,313.57573341015626C249.78815824529687,313.32418441015625,249.78815827529687,313.03944041015626,249.8959649352969,312.78789141015625L276.0807250292969,251.69014418015624C276.42705702929686,250.88203496015626,277.57268302929685,250.88203514015626,277.91901602929687,251.69014287015625" fill-rule="evenodd" fill="#E04BC7" fill-opacity="1"/></g><g><path d="M114.28264823144531,251.69014281015626L140.46740723144532,312.78791441015625C140.57521423144533,313.03946341015626,140.57521423144533,313.32420741015625,140.46740723144532,313.57575641015626L114.28264823144531,374.67349541015625C113.93631523144532,375.4816154101562,112.79068923144531,375.4816154101562,112.44435723144531,374.6735054101563L86.25959765144532,313.57573341015626C86.15179044744531,313.32418441015625,86.15179047744532,313.03944041015626,86.25959713744531,312.78789141015625L112.44435723144531,251.69014418015624C112.79068923144531,250.88203496015626,113.93631523144532,250.88203514015626,114.28264823144531,251.69014287015625" fill-rule="evenodd" fill="#E04BC7" fill-opacity="1"/></g><g><path d="M332.46454825585937,251.69014281015626L358.64930725585936,312.78791441015625C358.7571142558594,313.03946341015626,358.7571142558594,313.32420741015625,358.64930725585936,313.57575641015626L332.46454825585937,374.67349541015625C332.11821525585935,375.4816154101562,330.97258925585936,375.4816154101562,330.6262572558594,374.6735054101563L304.44149767585935,313.57573341015626C304.33369047185937,313.32418441015625,304.3336905018594,313.03944041015626,304.4414971618594,312.78789141015625L330.6262572558594,251.69014418015624C330.97258925585936,250.88203496015626,332.11821525585935,250.88203514015626,332.46454825585937,251.69014287015625" fill-rule="evenodd" fill="#E04BC7" fill-opacity="1"/></g><g><path d="M441.55549063867187,251.69014281015626L467.74024963867186,312.78791441015625C467.8480566386719,313.03946341015626,467.8480566386719,313.32420741015625,467.74024963867186,313.57575641015626L441.55549063867187,374.67349541015625C441.20915763867185,375.4816154101562,440.06353163867186,375.4816154101562,439.7171996386719,374.6735054101563L413.53244005867185,313.57573341015626C413.42463285467187,313.32418441015625,413.4246328846719,313.03944041015626,413.5324395446719,312.78789141015625L439.7171996386719,251.69014418015624C440.06353163867186,250.88203496015626,441.20915763867185,250.88203514015626,441.55549063867187,251.69014287015625" fill-rule="evenodd" fill="#E04BC7" fill-opacity="1"/></g><g><path d="M168.8281804580078,251.69014281015626L195.01293945800782,312.78791441015625C195.12074645800783,313.03946341015626,195.12074645800783,313.32420741015625,195.01293945800782,313.57575641015626L168.8281804580078,374.67349541015625C168.48184745800782,375.4816154101562,167.3362214580078,375.4816154101562,166.9898894580078,374.6735054101563L140.80512987800782,313.57573341015626C140.6973226740078,313.32418441015625,140.6973227040078,313.03944041015626,140.80512936400783,312.78789141015625L166.9898894580078,251.69014418015624C167.3362214580078,250.88203496015626,168.48184745800782,250.88203514015626,168.8281804580078,251.69014287015625" fill-rule="evenodd" fill="#E04BC7" fill-opacity="1"/></g><g><path d="M387.00995841210937,251.69014281015626L413.19471741210936,312.78791441015625C413.3025244121094,313.03946341015626,413.3025244121094,313.32420741015625,413.19471741210936,313.57575641015626L387.00995841210937,374.67349541015625C386.66362541210935,375.4816154101562,385.51799941210936,375.4816154101562,385.1716674121094,374.6735054101563L358.98690783210935,313.57573341015626C358.87910062810937,313.32418441015625,358.8791006581094,313.03944041015626,358.9869073181094,312.78789141015625L385.1716674121094,251.69014418015624C385.51799941210936,250.88203496015626,386.66362541210935,250.88203514015626,387.00995841210937,251.69014287015625" fill-rule="evenodd" fill="#E04BC7" fill-opacity="1"/></g><g><path d="M496.10090079492187,251.69014281015626L522.2856597949219,312.78791441015625C522.3934667949219,313.03946341015626,522.3934667949219,313.32420741015625,522.2856597949219,313.57575641015626L496.10090079492187,374.67349541015625C495.75456779492185,375.4816154101562,494.60894179492186,375.4816154101562,494.2626097949219,374.6735054101563L468.07785021492185,313.57573341015626C467.97004301092187,313.32418441015625,467.9700430409219,313.03944041015626,468.0778497009219,312.78789141015625L494.2626097949219,251.69014418015624C494.60894179492186,250.88203496015626,495.75456779492185,250.88203514015626,496.10090079492187,251.69014287015625" fill-rule="evenodd" fill="#E04BC7" fill-opacity="1"/></g><g><path d="M-23,440.45463948828126L3.3535819999999994,501.94633048828126C3.6999150000000007,502.75443048828123,4.845541000000001,502.75443048828123,5.191872,501.94633048828126L31.545456,440.4545404882813L5.1918739999999985,378.96284961828127C4.845541000000001,378.1547417082812,3.6999150000000007,378.15474223828124,3.3535840000000015,378.96285032828126L-23,440.45463948828126Z" fill="#E04BC7" fill-opacity="1"/></g><g><path d="M195.1817626953125,440.45463948828126L221.5353446953125,501.94633048828126C221.8816776953125,502.75443048828123,223.0273036953125,502.75443048828123,223.3736346953125,501.94633048828126L249.7272186953125,440.4545404882813L223.37363669531248,378.96284961828127C223.0273036953125,378.1547417082812,221.8816776953125,378.15474223828124,221.5353466953125,378.96285032828126L195.1817626953125,440.45463948828126Z" fill="#E04BC7" fill-opacity="1"/></g><g><path d="M31.54541015625,440.45463948828126L57.89899215625,501.94633048828126C58.245325156250004,502.75443048828123,59.39095115625,502.75443048828123,59.737282156250004,501.94633048828126L86.09086615625,440.4545404882813L59.73728415625,378.96284961828127C59.39095115625,378.1547417082812,58.245325156250004,378.15474223828124,57.89899415625,378.96285032828126L31.54541015625,440.45463948828126Z" fill="#E04BC7" fill-opacity="1"/></g><g><path d="M249.7271728515625,440.45463948828126L276.0807548515625,501.94633048828126C276.4270878515625,502.75443048828123,277.5727138515625,502.75443048828123,277.9190448515625,501.94633048828126L304.2726288515625,440.4545404882813L277.9190468515625,378.96284961828127C277.5727138515625,378.1547417082812,276.4270878515625,378.15474223828124,276.0807568515625,378.96285032828126L249.7271728515625,440.45463948828126Z" fill="#E04BC7" fill-opacity="1"/></g><g><path d="M86.0908203125,440.45463948828126L112.4444023125,501.94633048828126C112.7907353125,502.75443048828123,113.9363613125,502.75443048828123,114.2826923125,501.94633048828126L140.6362763125,440.4545404882813L114.2826943125,378.96284961828127C113.9363613125,378.1547417082812,112.7907353125,378.15474223828124,112.4444043125,378.96285032828126L86.0908203125,440.45463948828126Z" fill="#E04BC7" fill-opacity="1"/></g><g><path d="M304.272705078125,440.45463948828126L330.626287078125,501.94633048828126C330.972620078125,502.75443048828123,332.118246078125,502.75443048828123,332.464577078125,501.94633048828126L358.818161078125,440.4545404882813L332.464579078125,378.96284961828127C332.118246078125,378.1547417082812,330.972620078125,378.15474223828124,330.626289078125,378.96285032828126L304.272705078125,440.45463948828126Z" fill="#E04BC7" fill-opacity="1"/></g><g><path d="M413.3636474609375,440.45463948828126L439.7172294609375,501.94633048828126C440.0635624609375,502.75443048828123,441.2091884609375,502.75443048828123,441.5555194609375,501.94633048828126L467.9091034609375,440.4545404882813L441.5555214609375,378.96284961828127C441.2091884609375,378.1547417082812,440.0635624609375,378.15474223828124,439.7172314609375,378.96285032828126L413.3636474609375,440.45463948828126Z" fill="#E04BC7" fill-opacity="1"/></g><g><path d="M140.6363525390625,440.45463948828126L166.9899345390625,501.94633048828126C167.3362675390625,502.75443048828123,168.4818935390625,502.75443048828123,168.8282245390625,501.94633048828126L195.1818085390625,440.4545404882813L168.82822653906248,378.96284961828127C168.4818935390625,378.1547417082812,167.3362675390625,378.15474223828124,166.9899365390625,378.96285032828126L140.6363525390625,440.45463948828126Z" fill="#E04BC7" fill-opacity="1"/></g><g><path d="M358.818115234375,440.45463948828126L385.171697234375,501.94633048828126C385.518030234375,502.75443048828123,386.663656234375,502.75443048828123,387.009987234375,501.94633048828126L413.363571234375,440.4545404882813L387.009989234375,378.96284961828127C386.663656234375,378.1547417082812,385.518030234375,378.15474223828124,385.171699234375,378.96285032828126L358.818115234375,440.45463948828126Z" fill="#E04BC7" fill-opacity="1"/></g><g><path d="M467.9090576171875,440.45463948828126L494.2626396171875,501.94633048828126C494.6089726171875,502.75443048828123,495.7545986171875,502.75443048828123,496.1009296171875,501.94633048828126L522.4545136171876,440.4545404882813L496.1009316171875,378.96284961828127C495.7545986171875,378.1547417082812,494.6089726171875,378.15474223828124,494.2626416171875,378.96285032828126L467.9090576171875,440.45463948828126Z" fill="#E04BC7" fill-opacity="1"/></g><g><path d="M191.18812584375002,76.818115234375L191.18812584375002,104.99993323437499L240.13170584375,104.99993323437499L240.13182084375,183.93054523437502L240.13182084375,350.104065234375Q240.13182084375,382.155095234375,233.89800984375,394.583645234375Q228.51702884374998,405.311885234375,218.07388284375,405.311825234375Q204.49143984375002,405.311705234375,201.40364884375,398.351865234375Q199.28657484375,393.580015234375,200.55001784375,379.077115234375Q201.18812584375002,371.752195234375,201.18812584375002,368.181765234375Q201.18812584375002,352.329715234375,194.27164484375,341.588805234375Q186.63713084375001,329.73281523437504,174.49845084375,329.73281523437504Q160.91816684375,329.73281523437504,152.01456784375,337.297545234375Q140.45458984375,347.119205234375,140.45458984375,367.205195234375Q140.4545917510986,379.334415234375,146.77395774375,391.212955234375Q152.81276684375,402.564145234375,163.55396984375,411.711275234375Q186.81653584375,431.521515234375,217.96996284375,432.168945234375Q230.95043184374998,432.438725234375,236.22801184374998,431.680725234375Q240.95575984375,431.001675234375,252.65420984374998,427.369355234375Q268.41540984375,422.475465234375,279.84903984375,412.372955234375Q291.40690984375,402.160585234375,297.40146984374996,386.311795234375Q303.28139984375,370.766205234375,303.28139984375,350.104065234375L303.28139984375,183.930535234375L303.28151984375,104.99993323437499L346.64266984375,104.99993323437499L346.64266984375,76.818115234375L191.18812584375002,76.818115234375Z" fill-rule="evenodd" fill="#FFFFFF" fill-opacity="1"/></g></g></svg>